<?xml version="1.0" encoding="iso-8859-1"?>
<!-- Uploaded to: SVG Repo, www.svgrepo.com, Generator: SVG Repo Mixer Tools -->
<svg height="800px" width="800px" version="1.1" id="Layer_1" xmlns="http://www.w3.org/2000/svg" xmlns:xlink="http://www.w3.org/1999/xlink" 
	 viewBox="0 0 488 488" xml:space="preserve">
<circle style="fill:#7D38CE;" cx="51.2" cy="244" r="51.2"/>
<path style="fill:#8D4DE8;" d="M51.2,295.2C23.2,295.2,0,272,0,244"/>
<g>
	<path style="fill:#6728BF;" d="M102.4,244c0,28-23.2,51.2-51.2,51.2"/>
	<path style="fill:#6728BF;" d="M15.2,208c20-20,52-20,72,0s20,52,0,72"/>
</g>
<circle style="fill:#7D38CE;" cx="244" cy="244" r="51.2"/>
<path style="fill:#8D4DE8;" d="M244,295.2c-28,0-51.2-23.2-51.2-51.2"/>
<g>
	<path style="fill:#6728BF;" d="M295.2,244c0,28-23.2,51.2-51.2,51.2"/>
	<path style="fill:#6728BF;" d="M208,208c20-20,52-20,72,0s20,52,0,72"/>
</g>
<circle style="fill:#7D38CE;" cx="436.8" cy="244" r="51.2"/>
<path style="fill:#8D4DE8;" d="M436.8,295.2c-28,0-51.2-23.2-51.2-51.2"/>
<g>
	<path style="fill:#6728BF;" d="M488,244c0,28-23.2,51.2-51.2,51.2"/>
	<path style="fill:#6728BF;" d="M400.8,208c20-20,52-20,72,0s20,52,0,72"/>
</g>
</svg>